<?xml version="1.0" standalone="no"?>
<!DOCTYPE svg PUBLIC "-//W3C//DTD SVG 1.1//EN" "http://www.w3.org/Graphics/SVG/1.1/DTD/svg11.dtd">
<svg xmlns="http://www.w3.org/2000/svg"><metadata>This SVG WebFont was generated by YouWorkForThem.
</metadata><defs><font horiz-adv-x="1296" id="ywftsvg"><font-face ascent="1638" bbox="-154 -397 2142 1847" cap-height="1434" descent="-410" font-family="" font-stretch="normal" font-weight="500" panose-1="0 0 0 0 0 0 0 0 0 0" underline-position="0" underline-thickness="0" unicode-range="U+000A-2199" units-per-em="2048" x-height="1051"/><missing-glyph d="M102 1434h875v-1434h-875v1434zM160 1393l379 -633l381 633h-760zM514 717l-369 614v-1231zM541 674l-379 -631h758zM565 717l371 -621v1239z" horiz-adv-x="1079"/><glyph d="M102 1434h875v-1434h-875v1434zM160 1393l379 -633l381 633h-760zM514 717l-369 614v-1231zM541 674l-379 -631h758zM565 717l371 -621v1239z" glyph-name=".notdef" horiz-adv-x="1079"/><glyph glyph-name="glyph1" horiz-adv-x="0"/><glyph glyph-name="glyph1" horiz-adv-x="0"/><glyph glyph-name="glyph2" horiz-adv-x="681"/><glyph glyph-name="uni000A" horiz-adv-x="0" unicode="&#x0a;"/><glyph glyph-name="space" horiz-adv-x="415" unicode=" "/><glyph d="M127 254h254v-254h-254v254zM358 414h-206l-17 1020h240z" glyph-name="exclam" horiz-adv-x="509" unicode="!"/><glyph d="M319 1624l-63 -541h-127l-63 541h253zM639 1624l-64 -541h-126l-64 541h254z" glyph-name="quotedbl" horiz-adv-x="704" unicode="&quot;"/><glyph d="M1430 860h-289l-45 -287h284l-16 -190h-299l-59 -383h-222l60 383h-240l-59 -383h-223l59 383h-275l17 190h289l43 287h-285l16 191h299l60 383h223l-59 -383h237l60 383h223l-60 -383h275zM872 573l46 287h-240l-45 -287h239z" glyph-name="numbersign" horiz-adv-x="1552" unicode="#"/><glyph d="M1184 414q0 -203 -123 -311.5t-348 -116.5v-193h-127v195q-225 18 -347 136t-122 322h239q0 -104 62.5 -166.5t167.5 -80.5v411q-76 20 -128 40t-115.5 55.5t-102.5 78.5t-66 112t-27 155q0 170 118 276.5t321 120.5v192h127v-194q199 -16 318.5 -127t119.5 -299h-240 q0 84 -56 140.5t-142 74.5v-418q66 -23 97.5 -34t91 -34.5t91 -43t73.5 -51t63.5 -64.5t38 -78t16.5 -98zM387 1051q0 -66 51 -110t148 -81v379q-90 -12 -144.5 -60t-54.5 -128zM713 193q104 10 167.5 62t63.5 128q0 74 -58.5 116t-172.5 74v-380z" glyph-name="dollar" horiz-adv-x="1300" unicode="$"/><glyph d="M1223.5 750q142.5 0 216 -102.5t73.5 -281t-73.5 -280.5t-216 -102t-217 102t-74.5 280.5t74.5 281t217 102.5zM1224 92q81 0 124 74t43 201t-43 200.5t-124 73.5t-124 -73.5t-43 -200.5t43 -201t124 -74zM686 1067q0 -178 -74.5 -280.5t-216 -102.5t-216.5 102.5 t-75 280.5t75 280.5t216.5 102.5t216 -102.5t74.5 -280.5zM395 793q82 0 124 73.5t42 200.5t-42 200.5t-124 73.5t-124 -73.5t-42 -200.5t42 -200.5t124 -73.5zM985 1434h127l-477 -1434h-129z" glyph-name="percent" horiz-adv-x="1619" unicode="%"/><glyph d="M1178 281l280 -281h-293l-129 129q-182 -145 -418 -145q-211 0 -360 124.5t-149 303.5q0 121 73.5 226t196.5 163q-123 133 -127 284v3v3v2v1q4 152 119.5 254t277.5 102q164 0 278.5 -103.5t121.5 -256.5q6 -158 -111 -279q-74 -76 -174 -115l264 -264q51 98 51 209h209 q1 -196 -110 -360zM650 1251q-77 0 -133 -47t-58 -114q4 -113 151 -218q102 4 178 82q55 57 54 127q-2 72 -58.5 121t-133.5 49zM618 176q131 0 271 100l-361 361q-92 -25 -152.5 -87.5t-60.5 -137.5q0 -92 91 -164t212 -72z" glyph-name="ampersand" horiz-adv-x="1527" unicode="&amp;"/><glyph d="M319 1624l-63 -541h-127l-63 541h253z" glyph-name="quotesingle" horiz-adv-x="387" unicode="'"/><glyph d="M360 526.5q0 -581.5 263 -909.5h-242q-260 385 -260 909.5t260 907.5h242q-263 -326 -263 -907.5z" glyph-name="parenleft" horiz-adv-x="696" unicode="("/><glyph d="M74 -383q262 328 262 909.5t-262 907.5h239q262 -383 262 -907.5t-262 -909.5h-239z" glyph-name="parenright" horiz-adv-x="696" unicode=")"/><glyph d="M844 1159l-281 -121l187 -280l-107 -70l-174 262l-174 -262l-107 70l187 280l-281 121l51 117l261 -113v271h126v-271l263 113z" glyph-name="asterisk" horiz-adv-x="940" unicode="*"/><glyph d="M987 741v-206h-328v-342h-239v342h-326v206h326v342h239v-342h328z" glyph-name="plus" horiz-adv-x="1081" unicode="+"/><glyph d="M86 254h254v-254l-143 -287h-136l105 287h-80v254z" glyph-name="comma" horiz-adv-x="428" unicode=","/><glyph d="M782 535h-700v206h700v-206z" glyph-name="hyphen" horiz-adv-x="866" unicode="-"/><glyph d="M340 254v-254h-254v254h254z" glyph-name="period" horiz-adv-x="428" unicode="."/><glyph d="M815 1530l-541 -1626h-223l541 1626h223z" glyph-name="slash" horiz-adv-x="866" unicode="/"/><glyph d="M677 1450q271 0 413.5 -196.5t142.5 -536.5t-142.5 -536.5t-413.5 -196.5t-414.5 196.5t-143.5 536.5t143.5 536.5t414.5 196.5zM675.5 190q155.5 0 237.5 141.5t82 385.5t-82 385t-237.5 141t-236.5 -141t-81 -385t81 -385.5t236.5 -141.5z" glyph-name="zero" horiz-adv-x="1353" unicode="0"/><glyph d="M332 1434h237v-1434h-237v1102q-25 -2 -49 -2h-191v190h127q70 0 91.5 36t21.5 108z" glyph-name="one" horiz-adv-x="704" unicode="1"/><glyph d="M111 207l389 313q18 14 61 47t66.5 52.5t57.5 49t58.5 60.5t44.5 64q45 82 54.5 164.5t-31.5 166.5q-33 55 -88 87t-119 32q-98 0 -168.5 -70.5t-70.5 -168.5v-48h-238v48q0 184 139.5 315t337.5 131q117 0 223.5 -52t171.5 -145q121 -166 66 -387q-16 -74 -55 -143.5 t-82 -121.5t-108.5 -111.5t-115 -97.5t-126 -95t-117.5 -90h653v-207h-1003v207z" glyph-name="two" horiz-adv-x="1228" unicode="2"/><glyph d="M866 758q119 -51 187.5 -145.5t68.5 -215.5q0 -184 -151.5 -298.5t-374.5 -114.5q-215 0 -351 109.5t-143 289.5h240q12 -88 76.5 -140.5t177.5 -52.5q125 0 206 62.5t81 161t-81 161t-206 62.5h-143v207h143q94 0 158.5 55t64.5 144.5t-64.5 144.5t-158.5 55 q-76 0 -124 -38t-62 -105h-244q10 158 127 254t303 96q197 0 329 -104.5t132 -270.5q0 -100 -50.5 -180t-140.5 -129v-8z" glyph-name="three" horiz-adv-x="1236" unicode="3"/><glyph d="M1245 557v-207h-270v-350h-240v350h-637v207l557 877h320v-877h270zM352 557h383v602z" glyph-name="four" horiz-adv-x="1337" unicode="4"/><glyph d="M623 956q233 0 378.5 -140t145.5 -346t-145.5 -346t-378.5 -140q-197 0 -327 104.5t-187 294.5h256q29 -86 101.5 -139.5t162.5 -53.5q117 0 198.5 82t81.5 198t-82 198t-198 82q-123 0 -207 -95l-2 -2l-6 -6l-228 37l70 750h811v-207h-592l-29 -314q83 43 177 43z" glyph-name="five" horiz-adv-x="1263" unicode="5"/><glyph d="M676 956q236 0 381 -140t145 -346t-145.5 -346t-380.5 -140q-270 0 -413.5 196.5t-143.5 536.5t143.5 536.5t413.5 196.5q182 0 308 -91t190 -259h-259q-84 143 -239 143q-143 0 -224 -121t-92 -334q51 76 135.5 122t180.5 46zM684 190q115 0 197 82t82 198t-82 198 t-197 82t-196.5 -82t-81.5 -198t81.5 -198t196.5 -82z" glyph-name="six" horiz-adv-x="1318" unicode="6"/><glyph d="M86 1434h907v-207q-209 -199 -335 -525.5t-126 -701.5h-239q0 381 118.5 705.5t319.5 521.5h-645v207z" glyph-name="seven" horiz-adv-x="1079" unicode="7"/><glyph d="M903 762q121 -51 191.5 -145.5t70.5 -219.5q0 -184 -150.5 -298.5t-373.5 -114.5t-374.5 114.5t-151.5 298.5q0 125 70.5 219.5t191.5 145.5q-92 49 -145.5 130t-53.5 183q0 166 133 270.5t329 104.5t329 -104.5t133 -270.5q0 -102 -53.5 -183t-145.5 -130zM640 1243 q-95 0 -158.5 -55t-63.5 -144.5t63.5 -144.5t158.5 -55t159.5 55t64.5 144.5t-64.5 144.5t-159.5 55zM641 190q125 0 206 62.5t81 161t-81 161t-206 62.5t-206 -62.5t-81 -161t81 -161t206 -62.5z" glyph-name="eight" horiz-adv-x="1282" unicode="8"/><glyph d="M643 477q-236 0 -381 140.5t-145 346t145.5 346t380.5 140.5q270 0 413.5 -196.5t143.5 -536.5t-143.5 -536.5t-413.5 -196.5q-184 0 -309 91t-189 259h258q84 -143 240 -144q143 0 224 121t91 334q-51 -76 -135 -122t-180 -46zM634 1243q-116 0 -197 -82t-81 -197.5 t81 -197.5t197 -82t197.5 82t81.5 197.5t-81.5 197.5t-197.5 82z" glyph-name="nine" horiz-adv-x="1318" unicode="9"/><glyph d="M356 254v-254h-254v254h254zM356 1051v-254h-254v254h254z" glyph-name="colon" horiz-adv-x="460" unicode=":"/><glyph d="M102 254h254v-254l-143 -287h-135l104 287h-80v254zM356 1051v-254h-254v254h254z" glyph-name="semicolon" horiz-adv-x="460" unicode=";"/><glyph d="M96 821l1051 365v-238l-762 -231l762 -232v-237l-1051 364v209z" glyph-name="less" horiz-adv-x="1259" unicode="&lt;"/><glyph d="M98 971h893v-207h-893v207zM98 303v207h893v-207h-893z" glyph-name="equal" horiz-adv-x="1089" unicode="="/><glyph d="M111 1186l1050 -365v-209l-1050 -364v237l761 232l-761 231v238z" glyph-name="greater" horiz-adv-x="1259" unicode=">"/><glyph d="M678 254v-254h-256v254h256zM551 1450q201 0 339 -123t138 -307q0 -143 -102.5 -254t-255.5 -148v-204h-240v383h121q63 0 119 30q55 29 86.5 81.5t31.5 111.5q0 102 -63 169.5t-174 67.5t-167 -66.5t-56 -170.5h-240q0 186 131 308t332 122z" glyph-name="question" horiz-adv-x="1130" unicode="?"/><glyph d="M1804 606q-4 -221 -141 -340q-125 -106 -307 -106q-150 0 -256 121q-106 -121 -252 -121q-172 0 -265.5 123t-65.5 322.5t157 322.5t299 123q135 0 209 -105l12 92h197l-93 -665q29 -53 138 -54q80 0 136 67t66 151q27 203 -69 403q-78 162 -230.5 259t-332.5 97 q-186 0 -351.5 -92t-265.5 -252.5t-100 -345.5q0 -188 90 -347t245.5 -252t340.5 -93q182 0 338 92l75 -131q-195 -115 -422 -115q-229 0 -423.5 114t-307 308.5t-112.5 423.5q0 170 73.5 327t196.5 269.5t285.5 180t337.5 67.5q231 0 417 -119q188 -119 289 -330 q96 -198 92 -395zM1040 373q59 55 88 153q12 39 19 80q18 127 -26 207t-144 80q-102 0 -174 -81t-89.5 -207t31 -207t150.5 -81q84 1 145 56z" glyph-name="at" horiz-adv-x="1916" unicode="@"/><glyph d="M1022 0l-111 334h-526l-113 -334h-254l510 1434h240l508 -1434h-254zM442 510h410l-205 612z" glyph-name="A" unicode="A"/><glyph d="M879 750q123 0 214 -81t91 -227q0 -141 -66.5 -244.5t-164 -150.5t-212.5 -47h-608v1434h594q104 0 195.5 -43t153 -139.5t61.5 -227.5t-82 -202.5t-193 -71.5h17zM694 1227h-321v-375h321q84 0 143.5 46t59.5 141.5t-59.5 141.5t-143.5 46zM711 207q96 0 165.5 54 t69.5 165t-69.5 165t-165.5 54h-338v-438h338z" glyph-name="B" horiz-adv-x="1265" unicode="B"/><glyph d="M713 190q254 0 325 287h240q-51 -231 -197.5 -362t-367.5 -131q-281 0 -459 201.5t-178 531.5t178 531.5t459 201.5q221 0 367.5 -131t197.5 -363h-240q-72 287 -325 287q-184 0 -291 -145.5t-107 -381t107 -381t291 -145.5z" glyph-name="C" horiz-adv-x="1343" unicode="C"/><glyph d="M596 1434q135 0 260 -45.5t228.5 -131.5t166 -226t62.5 -314t-62.5 -314.5t-166 -226.5t-228.5 -131t-260 -45h-463v1434h463zM563 207q96 0 185.5 32.5t163 93t117.5 161t44 223.5t-44 223t-117.5 160.5t-163 93.5t-185.5 33h-190v-1020h190z" glyph-name="D" horiz-adv-x="1382" unicode="D"/><glyph d="M1104 1227h-731v-375h637v-207h-637v-438h731v-207h-971v1434h971v-207z" glyph-name="E" horiz-adv-x="1181" unicode="E"/><glyph d="M1104 1227h-731v-430h637v-207h-637v-590h-240v1434h971v-207z" glyph-name="F" horiz-adv-x="1146" unicode="F"/><glyph d="M729 764h574v-764h-177v262q-104 -279 -413 -278q-281 0 -459 201.5t-178 531.5t178 531.5t459 201.5q221 0 367.5 -131t197.5 -363h-240q-72 287 -325 287q-184 0 -291 -145.5t-107 -381t106.5 -381t291.5 -145.5q154 0 238.5 105.5t105.5 294.5h-328v174z" glyph-name="G" horiz-adv-x="1404" unicode="G"/><glyph d="M1073 1434h240v-1434h-240v645h-700v-645h-240v1434h240v-582h700v582z" glyph-name="H" horiz-adv-x="1445" unicode="H"/><glyph d="M373 1434v-1434h-240v1434h240z" glyph-name="I" horiz-adv-x="505" unicode="I"/><glyph d="M272 477v-102q0 -82 46.5 -133.5t136.5 -51.5q86 0 135 52.5t49 132.5v1059h238v-1028q0 -180 -115 -301t-307.5 -121t-307 120.5t-114.5 301.5v71h239z" glyph-name="J" horiz-adv-x="999" unicode="J"/><glyph d="M754 811l559 -811h-273l-436 633l-231 -275v-358h-240v1434h240v-754l637 754h270z" glyph-name="K" horiz-adv-x="1331" unicode="K"/><glyph d="M373 207h667v-207h-907v1434h240v-1227z" glyph-name="L" horiz-adv-x="1056" unicode="L"/><glyph d="M1233 1434h287v-1434h-240v1018l-350 -1018h-207l-350 1018v-1018h-240v1434h287l405 -1143z" glyph-name="M" horiz-adv-x="1652" unicode="M"/><glyph d="M1073 1434h240v-1434h-240l-700 1106v-1106h-240v1434h254l686 -1082v1082z" glyph-name="N" horiz-adv-x="1445" unicode="N"/><glyph d="M740.5 1450q138.5 0 261 -53.5t213 -146.5t142.5 -232t52 -301t-52 -301.5t-142.5 -232.5t-213 -146t-261 -53t-260.5 53t-213 146t-143 232.5t-52 301.5t52 301t143 232t213 146.5t260.5 53.5zM740.5 190q187.5 0 309 147.5t121.5 379t-121.5 379t-309 147.5 t-308.5 -147.5t-121 -379t121 -379t308.5 -147.5z" glyph-name="O" horiz-adv-x="1482" unicode="O"/><glyph d="M715 1434q109 0 202 -45.5t156.5 -143.5t63.5 -233t-63.5 -234.5t-157 -143.5t-201.5 -44h-342v-590h-240v1434h582zM682 797q88 0 151.5 56t63.5 158.5t-63.5 159t-151.5 56.5h-309v-430h309z" glyph-name="P" horiz-adv-x="1183" unicode="P"/><glyph d="M1409 717q0 -182 -64.5 -330.5t-177.5 -247.5l195 -315h-254l-127 205q-115 -45 -240 -45q-139 0 -261 53t-213 146t-143 232.5t-52 301.5t52 301t143 232t213 146.5t260.5 53.5t261 -53.5t213 -146.5t142.5 -232t52 -301zM346 494q49 -139 153.5 -221.5t241.5 -82.5 q186 0 308 147.5t122 379.5q0 70 -12 133q-4 16 -6 31q-6 25 -14 49q-20 59 -49 110q-12 18 -27 37q-90 123 -232 156q-12 2 -26 4q-31 6 -64 6q-35 0 -69 -6q-10 -2 -21 -4q-57 -12 -106 -41q-14 -8 -29 -18q-29 -20 -53 -46q-45 -43 -78 -102q-74 -133 -74 -309 q0 -92 21 -176q4 -12 8 -27q4 -10 6 -20z" glyph-name="Q" horiz-adv-x="1484" unicode="Q"/><glyph d="M797 596l372 -596h-256l-366 590h-174v-590h-240v1434h582q109 0 202 -45.5t156.5 -143.5t63.5 -233q0 -174 -97.5 -281.5t-242.5 -134.5zM373 797h309q88 0 151.5 56t63.5 158.5t-63.5 159t-151.5 56.5h-309v-430z" glyph-name="R" horiz-adv-x="1228" unicode="R"/><glyph d="M346 1051q0 -57 44 -101.5t113.5 -73t154.5 -55t170 -59.5t156 -76t115 -112.5t44 -159.5q0 -211 -134.5 -320.5t-375.5 -109.5q-266 0 -411.5 118.5t-145.5 343.5h239q-2 -125 88.5 -190.5t229.5 -65.5q119 0 194.5 54.5t75.5 138.5q0 53 -33.5 92t-90 60.5t-128 44 t-146.5 41t-146.5 53.5t-127 80t-90.5 121.5t-35 175.5q0 180 134.5 289.5t359.5 109.5t367.5 -111.5t142.5 -318.5h-240q0 102 -80.5 162.5t-189.5 60.5q-113 0 -183.5 -50t-70.5 -142z" glyph-name="S" horiz-adv-x="1220" unicode="S"/><glyph d="M1178 1434v-207h-463v-1227h-238v1227h-463v207h1164z" glyph-name="T" horiz-adv-x="1191" unicode="T"/><glyph d="M1036 1434h240v-869q0 -248 -159 -414.5t-423 -166.5t-422.5 166.5t-158.5 414.5v869h239v-899q0 -152 87 -248.5t255 -96.5q160 0 251 97.5t91 247.5v899z" glyph-name="U" horiz-adv-x="1388" unicode="U"/><glyph d="M1018 1434h254l-508 -1434h-240l-510 1434h254l375 -1123z" glyph-name="V" horiz-adv-x="1288" unicode="V"/><glyph d="M1540 1434h240l-383 -1434h-240l-254 956l-256 -956h-237l-383 1434h239l264 -1037l277 1037h190l277 -1037z" glyph-name="W" horiz-adv-x="1806" unicode="W"/><glyph d="M1294 0h-254l-383 555l-383 -555h-254l510 739l-477 695h254l350 -508l351 508h256l-480 -695z" glyph-name="X" horiz-adv-x="1316" unicode="X"/><glyph d="M1004 1434h253l-507 -820v-614h-240v614l-510 820h254l375 -613z" glyph-name="Y" horiz-adv-x="1259" unicode="Y"/><glyph d="M1169 1343l-809 -1136h809v-207h-1130v90l809 1137h-762v207h1083v-91z" glyph-name="Z" horiz-adv-x="1216" unicode="Z"/><glyph d="M627 1227h-254v-1403h254v-207h-494v1817h494v-207z" glyph-name="bracketleft" horiz-adv-x="714" unicode="["/><glyph d="M590 -96l-541 1626h223l541 -1626h-223z" glyph-name="backslash" horiz-adv-x="866" unicode="\"/><glyph d="M86 1434h494v-1817h-494v207h254v1403h-254v207z" glyph-name="bracketright" horiz-adv-x="714" unicode="]"/><glyph d="M1165 0h-1083v207h1083v-207z" glyph-name="underscore" horiz-adv-x="1247" unicode="_"/><glyph d="M643 1530h-176l-334 301h320z" glyph-name="grave" horiz-adv-x="776" unicode="`"/><glyph d="M954 684v-684h-223v127q-33 -49 -83 -82t-103 -44t-80 -14t-53 -3q-63 2 -125 24q-72 25 -125 78t-72 123q-12 47 -12 94q0 102 65 182q45 57 109 88q66 29 135.5 47.5t185 39t142.5 24.5v33q0 160 -183.5 160t-183.5 -160h-237q10 156 116.5 253t304.5 97 q209 0 315.5 -106.5t106.5 -276.5zM715 350v160l-203 -45q-37 -8 -59.5 -14.5t-54 -20.5t-51 -35.5t-25.5 -52.5q-4 -18 -5 -39q-2 -57 39 -96t119 -31q55 4 106.5 20.5t92.5 57.5t41 96z" glyph-name="a" horiz-adv-x="1062" unicode="a"/><glyph d="M631 1067q207 0 342 -149.5t135 -392t-135 -392t-342 -149.5q-176 0 -287 147v-131h-223v1434h239v-494q107 127 271 127zM600 176q125 0 197.5 98.5t72.5 251t-72.5 252t-197.5 99.5q-123 0 -189.5 -98.5t-66.5 -253t66.5 -252t189.5 -97.5z" glyph-name="b" horiz-adv-x="1185" unicode="b"/><glyph d="M786 367h242q-41 -176 -166 -279.5t-295 -103.5q-209 0 -351 150.5t-142 391t142 391t351 150.5q172 0 296 -102.5t165 -280.5h-242q-27 90 -82 141.5t-137 51.5q-117 0 -185.5 -99.5t-68.5 -251t69 -251t185 -99.5q82 0 137 50.5t82 140.5z" glyph-name="c" horiz-adv-x="1095" unicode="c"/><glyph d="M1063 1434v-1434h-223v131q-111 -147 -287 -147q-207 0 -342 149.5t-135 392t135 392t342 149.5q164 0 272 -127v494h238zM584 176q125 0 190.5 97.5t65.5 252t-65.5 253t-190.5 98.5q-123 0 -196 -99.5t-73 -252t73 -251t196 -98.5z" glyph-name="d" horiz-adv-x="1185" unicode="d"/><glyph d="M1030 494h-717q8 -139 77 -228.5t177 -89.5q129 0 185 127h245q-51 -150 -163.5 -234.5t-266.5 -84.5q-201 0 -342 141t-151 369v32q0 55 8 111q33 197 168 313.5t317 116.5t304 -115.5t151 -314.5q8 -53 8 -111v-32zM324 637h460q-18 117 -71.5 186.5t-145.5 69.5 t-156 -71.5t-87 -184.5z" glyph-name="e" horiz-adv-x="1101" unicode="e"/><glyph d="M520 1243q-33 0 -56.5 -19.5t-23.5 -60.5v-112h224v-174h-224v-877h-237v877h-160v174h160v112q0 139 83 205t203 66h175v-191h-144z" glyph-name="f" horiz-adv-x="694" unicode="f"/><glyph d="M1030 1051v-988q0 -225 -127 -342.5t-366 -117.5q-176 0 -312.5 103.5t-171.5 260.5h246q27 -78 92.5 -126t145.5 -48q254 0 254 270v84q-102 -115 -256 -114q-201 0 -331 142t-130 374.5t130 375t331 142.5q168 0 272 -133v117h223zM567 223q115 0 177.5 91.5 t62.5 235.5t-62.5 235.5t-177.5 91.5q-117 0 -185.5 -92.5t-68.5 -234.5t68.5 -234.5t185.5 -92.5z" glyph-name="g" horiz-adv-x="1153" unicode="g"/><glyph d="M631 1067q158 0 270.5 -111.5t112.5 -271.5v-684h-240v649q0 102 -49 165t-145 63q-100 0 -160 -63.5t-60 -164.5v-649h-239v1434h239v-494q107 127 271 127z" glyph-name="h" horiz-adv-x="1122" unicode="h"/><glyph d="M360 1051v-1051h-239v1051h239zM367 1434v-224h-254v224h254z" glyph-name="i" horiz-adv-x="481" unicode="i"/><glyph d="M74 -383h-176v193h143q35 0 57.5 18t22.5 61v1162h239v-1162q0 -139 -82.5 -205.5t-203.5 -66.5zM367 1434v-224h-254v224h254z" glyph-name="j" horiz-adv-x="481" unicode="j"/><glyph d="M637 621l440 -621h-239l-340 479l-138 -139v-340h-239v1434h239v-850l445 467h256z" glyph-name="k" horiz-adv-x="1107" unicode="k"/><glyph d="M360 1434v-1434h-239v1434h239z" glyph-name="l" horiz-adv-x="481" unicode="l"/><glyph d="M1260 1067q156 0 265 -111.5t109 -271.5v-684h-239v649q0 102 -47.5 165t-139.5 63q-96 0 -153.5 -63.5t-57.5 -164.5v-649h-239v649q0 102 -47 165t-140 63q-96 0 -153.5 -63.5t-57.5 -164.5v-649h-239v1051h223v-127q109 143 279 143q102 0 189 -52t136 -141 q111 193 312 193z" glyph-name="m" horiz-adv-x="1742" unicode="m"/><glyph d="M121 0v1051h223v-131q111 147 287 147q158 0 270.5 -111.5t112.5 -271.5v-684h-240v649q0 102 -49 165t-145 63q-100 0 -160 -63.5t-60 -164.5v-649h-239z" glyph-name="n" horiz-adv-x="1122" unicode="n"/><glyph d="M1063 525.5q0 -240.5 -142.5 -391t-352.5 -150.5t-352 150.5t-142 391t142 391t352 150.5t352.5 -150.5t142.5 -391zM823 526.5q0 151.5 -69.5 251t-186 99.5t-185.5 -99.5t-69 -251t69 -251t185.5 -99.5t186 99.5t69.5 251z" glyph-name="o" horiz-adv-x="1136" unicode="o"/><glyph d="M631 1067q207 0 342 -149.5t135 -392t-135 -392t-342 -149.5q-164 0 -271 127v-494h-239v1434h223v-131q111 147 287 147zM600 176q125 0 197.5 98.5t72.5 251t-72.5 252t-197.5 99.5q-123 0 -189.5 -98.5t-66.5 -253t66.5 -252t189.5 -97.5z" glyph-name="p" horiz-adv-x="1185" unicode="p"/><glyph d="M1063 1051v-1434h-238v494q-109 -127 -272 -127q-207 0 -342 149.5t-135 392t135 392t342 149.5q176 0 287 -147v131h223zM584 176q125 0 190.5 97.5t65.5 252t-65.5 253t-190.5 98.5q-123 0 -196 -99.5t-73 -252t73 -251t196 -98.5z" glyph-name="q" horiz-adv-x="1185" unicode="q"/><glyph d="M631 1067q23 0 47 -2v-188h-98q-100 0 -160 -63.5t-60 -164.5v-649h-239v1051h223v-129q111 145 287 145z" glyph-name="r" horiz-adv-x="708" unicode="r"/><glyph d="M489 877q-68 0 -113.5 -31t-45.5 -82q0 -43 43 -72.5t106.5 -43t138 -37t138 -54.5t105.5 -96.5t42 -157.5q0 -141 -118.5 -230t-295.5 -89q-172 0 -292.5 98t-120.5 237h239q0 -59 51.5 -101t122.5 -42q76 0 126.5 35t50.5 92q0 47 -43 78t-106.5 44t-138.5 36.5 t-138.5 52.5t-105.5 93.5t-42 156.5q0 131 116 217t281 86q166 0 283 -93t117 -224h-240q0 51 -47 89t-113 38z" glyph-name="s" horiz-adv-x="985" unicode="s"/><glyph d="M662 877h-224v-607q0 -41 23.5 -60.5t56.5 -19.5h144v-190h-175q-121 0 -203.5 65.5t-82.5 204.5v607h-160v174h160v286h237v-286h224v-174z" glyph-name="t" horiz-adv-x="724" unicode="t"/><glyph d="M743 1051h240v-1051h-223v127q-109 -143 -279 -143q-156 0 -265.5 112.5t-109.5 270.5v684h240v-650q0 -102 47 -163.5t139 -61.5q96 0 153.5 63.5t57.5 161.5v650z" glyph-name="u" horiz-adv-x="1103" unicode="u"/><glyph d="M729 1051h240l-367 -1051h-207l-366 1051h239l230 -762z" glyph-name="v" horiz-adv-x="997" unicode="v"/><glyph d="M1212 1051h238l-317 -1051h-193l-199 729l-198 -729h-191l-319 1051h239l174 -641l177 641h237l176 -641z" glyph-name="w" horiz-adv-x="1484" unicode="w"/><glyph d="M1004 0h-238l-248 362l-246 -362h-239l366 537l-350 514h238l231 -338l232 338h239l-350 -514z" glyph-name="x" horiz-adv-x="1038" unicode="x"/><glyph d="M438 0l-413 1051h239l279 -799l278 799h240l-416 -1051q-33 -78 -57.5 -127t-62.5 -102.5t-78.5 -83t-99 -50t-132.5 -20.5h-94v193h133q74 0 121 53t63 137z" glyph-name="y" horiz-adv-x="1085" unicode="y"/><glyph d="M950 969l-602 -779h586v-190h-877v123l570 737h-537v191h860v-82z" glyph-name="z" horiz-adv-x="1005" unicode="z"/><glyph d="M475 700q0 -96 -43 -133t-121 -41q78 -4 121 -40.5t43 -135.5v-461q0 -43 22.5 -61t57.5 -18h143v-193h-176q-121 0 -203.5 66.5t-82.5 205.5v461q0 41 -23 60.5t-57 19.5h-47v191h47q35 0 57.5 19t22.5 60v463q0 139 82.5 205t203.5 66h176v-191h-143q-35 0 -57.5 -19.5 t-22.5 -60.5v-463z" glyph-name="braceleft" horiz-adv-x="788" unicode="{"/><glyph d="M356 1530v-1913h-223v1913h223z" glyph-name="bar" horiz-adv-x="489" unicode="|"/><glyph d="M477 526q-80 4 -122 41t-42 133v463q0 41 -22.5 60.5t-57.5 19.5h-143v191h176q121 0 204 -65.5t83 -205.5v-463q0 -41 22.5 -60t55.5 -19h49v-191h-49q-33 0 -55.5 -19.5t-22.5 -60.5v-461q0 -139 -83 -205.5t-204 -66.5h-176v193h143q35 0 57.5 18t22.5 61v461 q0 98 42 135t122 41z" glyph-name="braceright" horiz-adv-x="788" unicode="}"/><glyph glyph-name="uni00A0" horiz-adv-x="720" unicode=" "/><glyph d="M115 1051h254v-254h-254v254zM139 637h207l16 -1020h-239z" glyph-name="exclamdown" horiz-adv-x="485" unicode="¡"/><glyph d="M637 178q137 18 186 189h242q-39 -168 -154.5 -269.5t-273.5 -111.5v-193h-96v195q-186 25 -308 171t-122 367.5t121.5 366.5t308.5 170v194h96v-192q158 -8 273.5 -110.5t154.5 -270.5h-242q-49 170 -186 190v-696zM350 525q0 -128 51.5 -221t139.5 -120v682 q-88 -27 -139.5 -120t-51.5 -221z" glyph-name="cent" horiz-adv-x="1173" unicode="¢"/><glyph d="M410 207h815v-207h-1114v207q100 0 145 66.5t45 172.5v160h-190v174h190v240q0 190 130 310t333 120q197 0 321.5 -124t124.5 -306h-239q0 102 -52.5 169.5t-154.5 67.5q-104 0 -163.5 -68.5t-59.5 -168.5v-240h270v-174h-270v-160q0 -176 -131 -239z" glyph-name="sterling" horiz-adv-x="1333" unicode="£"/><glyph d="M1331 1434l-444 -717h237v-111h-301v-96h301v-113h-301v-397h-239v397h-303v113h303v96h-303v111h239l-446 717h254l374 -613l375 613h254z" glyph-name="yen" horiz-adv-x="1406" unicode="¥"/><glyph d="M887 479q74 -68 76 -176q0 -154 -109 -236.5t-291 -82.5t-307 98t-137 252h239q12 -80 75 -119t130 -39q66 0 113 27.5t47 83.5q0 53 -53 88q-35 23 -102.5 44t-132 39.5t-128 48.5t-106.5 83t-49 127q-2 16 -2 33q0 113 75 194q-76 72 -75 186q0 141 113.5 230.5 t283.5 89.5q172 0 279.5 -91t117.5 -245h-239q-8 74 -52.5 108.5t-105.5 34.5q-66 0 -113 -27.5t-47 -82.5q0 -53 49 -90q35 -29 112 -54.5t145.5 -44t138 -58.5t102.5 -97q27 -51 27 -119q0 -125 -74 -205zM672 582q51 31 51 88q0 20 -8 38.5t-25.5 33t-36 25.5t-49.5 22.5 t-53.5 17.5t-61 17.5t-61.5 19.5q-41 -31 -41 -80q0 -16 5 -32.5t16.5 -30t21.5 -23.5t29.5 -20.5t34 -17.5t42 -16.5t42 -13.5t47.5 -13t47 -15z" glyph-name="section" horiz-adv-x="1085" unicode="§"/><glyph d="M387 1753v-223h-254v223h254zM770 1753v-223h-254v223h254z" glyph-name="dieresis" horiz-adv-x="905" unicode="¨"/><glyph d="M845.5 1450q198.5 0 367.5 -98.5t267.5 -267.5t98.5 -367.5t-98.5 -367.5t-267.5 -267t-367.5 -98t-367.5 98t-267 267t-98 367.5t98 367.5t267 267.5t367.5 98.5zM845.5 63q270.5 0 462 191.5t191.5 462t-191.5 462t-462 191.5t-461.5 -191.5t-191 -462t191 -462 t461.5 -191.5zM846 379q162 0 207 184h155q-33 -150 -127 -232.5t-235 -82.5q-180 0 -295 129t-115 340t115 340t295 129q141 0 235.5 -83t126.5 -233h-155q-45 184 -207 185q-119 0 -187.5 -93.5t-68.5 -245t68.5 -244.5t187.5 -93z" glyph-name="copyright" horiz-adv-x="1691" unicode="©"/><glyph d="M727 612v209l629 365v-238l-455 -231l455 -232v-237zM98 821l629 365v-238l-457 -231l457 -232v-237l-629 364v209z" glyph-name="guillemotleft" horiz-adv-x="1468" unicode="«"/><glyph glyph-name="uni00AD" horiz-adv-x="0" unicode="­"/><glyph d="M845.5 1450q198.5 0 367.5 -98.5t267.5 -267.5t98.5 -367.5t-98.5 -367.5t-267.5 -267t-367.5 -98t-367.5 98t-267 267t-98 367.5t98 367.5t267 267.5t367.5 98.5zM845.5 63q270.5 0 462 191.5t191.5 462t-191.5 462t-462 191.5t-461.5 -191.5t-191 -462t191 -462 t461.5 -191.5zM940 639l240 -385h-166l-236 381h-112v-381h-154v926h375q109 0 190.5 -72t81.5 -201q0 -113 -63.5 -182.5t-155.5 -85.5zM666 768h200q55 0 96.5 37t41.5 102.5t-41 101t-97 35.5h-200v-276z" glyph-name="registered" horiz-adv-x="1691" unicode="®"/><glyph d="M401 1450q125 0 214.5 -89t89.5 -214t-89.5 -214t-214.5 -89t-214 89t-89 214q0 76 34 140.5t93 107.5q80 55 176 55zM400.5 956q78.5 0 135 55.5t56.5 135.5t-56.5 135t-135 55t-135 -55t-56.5 -135t56.5 -135.5t135 -55.5z" glyph-name="degree" horiz-adv-x="802" unicode="°"/><glyph d="M84 1174l201 161q10 8 32.5 24.5t33.5 27t28.5 25.5t31 31.5t23.5 33.5q55 96 10 172q-35 59 -104 59q-51 0 -88 -36t-37 -87v-24h-123v24q0 96 73 164t175 68q59 0 113.5 -27t89.5 -76q63 -84 35 -198q-10 -45 -34 -86t-61 -78t-65.5 -60.5t-79.5 -61.5t-74 -56h338 v-107h-518v107z" glyph-name="uni00B2" horiz-adv-x="690" unicode="²"/><glyph d="M485 1456q61 -29 97 -77t36 -111q0 -96 -79.5 -156.5t-194.5 -60.5q-113 0 -183.5 57t-74.5 152h125q6 -47 40 -74t93 -27q66 0 108 33t42 84t-42 84t-108 33h-76v106h76q49 0 82 30t33 76t-33 74.5t-82 28.5q-82 0 -98 -76h-127q6 84 66.5 134.5t158.5 50.5 q102 0 171 -54.5t69 -142.5q0 -104 -99 -160v-4z" glyph-name="uni00B3" horiz-adv-x="708" unicode="³"/><glyph d="M133 1530l191 301h319l-334 -301h-176z" glyph-name="acute" horiz-adv-x="776" unicode="´"/><glyph d="M1456 1434v-207h-174v-1610h-240v1610h-112v-1610h-238v973h-168q-109 0 -202 44t-156.5 143.5t-63.5 234.5t63.5 233t157 143.5t201.5 45.5h932zM692 797v430h-135q-88 0 -151.5 -56.5t-63.5 -159t63.5 -158.5t151.5 -56h135z" glyph-name="paragraph" horiz-adv-x="1558" unicode="¶"/><glyph d="M410 877v-320h-320v320h320z" glyph-name="periodcentered" horiz-adv-x="499" unicode="·"/><glyph d="M94 1800h121v-733h-121v563q-12 -2 -24 -2h-99v98h66q35 0 46 18.5t11 55.5z" glyph-name="uni00B9" horiz-adv-x="311" unicode="¹"/><glyph d="M739 821v-209l-628 -364v237l456 232l-456 231v238zM739 1186l629 -365v-209l-629 -364v237l457 232l-457 231v238z" glyph-name="guillemotright" horiz-adv-x="1468" unicode="»"/><glyph d="M436 797v254h256v-254h-256zM563 -397q-201 0 -339 121.5t-138 308.5q0 141 102.5 251.5t255.5 147.5v205h240v-383h-121q-63 0 -119 -29q-55 -31 -86.5 -82t-31.5 -110q0 -104 63.5 -172t173.5 -68q111 0 167 66.5t56 173.5h240q0 -186 -131 -308t-332 -122z" glyph-name="questiondown" horiz-adv-x="1079" unicode="¿"/><glyph d="M1022 0l-111 334h-526l-113 -334h-254l510 1434h240l508 -1434h-254zM442 510h410l-205 612zM735 1530h-176l-334 301h320z" glyph-name="Agrave" unicode="À"/><glyph d="M1022 0l-111 334h-526l-113 -334h-254l510 1434h240l508 -1434h-254zM442 510h410l-205 612zM559 1530l193 301h317l-334 -301h-176z" glyph-name="Aacute" unicode="Á"/><glyph d="M1022 0l-111 334h-526l-113 -334h-254l510 1434h240l508 -1434h-254zM442 510h410l-205 612zM768 1831l238 -301h-175l-192 151l-190 -151h-177l240 301h256z" glyph-name="Acircumflex" unicode="Â"/><glyph d="M1022 0l-111 334h-526l-113 -334h-254l510 1434h240l508 -1434h-254zM442 510h410l-205 612zM831 1831h175q2 -6 2 -17.5t-2 -44t-7.5 -63.5t-20.5 -67.5t-39 -62.5t-63.5 -44.5t-93.5 -18.5q-43 0 -84 25t-68.5 54.5t-59 55t-58.5 25.5q-35 0 -47 -35.5t-6 -72.5l6 -35 h-176q0 6 -1 17.5t1 44t8 63.5t21.5 67.5t38 63t63.5 44t92 17.5q43 0 85 -24.5t68.5 -54t59.5 -55t57 -25.5q37 0 48.5 35.5t5.5 72.5z" glyph-name="Atilde" unicode="Ã"/><glyph d="M1022 0l-111 334h-526l-113 -334h-254l510 1434h240l508 -1434h-254zM442 510h410l-205 612zM584 1753v-223h-254v223h254zM967 1753v-223h-256v223h256z" glyph-name="Adieresis" unicode="Ä"/><glyph d="M780 1397l496 -1397h-254l-111 334h-526l-113 -334h-254l498 1397q-94 72 -94 205q0 109 65.5 177t160.5 68t159.5 -68.5t64.5 -176.5q0 -133 -92 -205zM648 1737q-48 0 -79.5 -38t-31.5 -97.5t31.5 -97.5t79.5 -38t79 38t31 97.5t-31 97.5t-79 38zM442 510h410l-205 612 z" glyph-name="Aring" unicode="Å"/><glyph d="M1886 1227h-733v-375h637v-207h-637v-438h733v-207h-973v334h-471l-182 -334h-254l797 1434h1083v-207zM913 510v690l-374 -690h374z" glyph-name="AE" horiz-adv-x="1961" unicode="Æ"/><glyph d="M713 190q254 0 325 287h240q-45 -205 -167 -333t-304 -154l-78 -293h-319l217 293q-248 33 -399.5 229.5t-151.5 497.5q0 330 178 531.5t459 201.5q221 0 367.5 -131t197.5 -363h-240q-72 287 -325 287q-184 0 -291 -145.5t-107 -381t107 -381t291 -145.5z" glyph-name="Ccedilla" horiz-adv-x="1343" unicode="Ç"/><glyph d="M1104 1227h-731v-375h637v-207h-637v-438h731v-207h-971v1434h971v-207zM770 1530h-174l-336 301h320z" glyph-name="Egrave" horiz-adv-x="1181" unicode="È"/><glyph d="M1104 1227h-731v-375h637v-207h-637v-438h731v-207h-971v1434h971v-207zM403 1530l193 301h317l-333 -301h-177z" glyph-name="Eacute" horiz-adv-x="1181" unicode="É"/><glyph d="M1104 1227h-731v-375h637v-207h-637v-438h731v-207h-971v1434h971v-207zM745 1831l240 -301h-174l-193 151l-190 -151h-176l240 301h253z" glyph-name="Ecircumflex" horiz-adv-x="1181" unicode="Ê"/><glyph d="M1104 1227h-731v-375h637v-207h-637v-438h731v-207h-971v1434h971v-207zM555 1753v-223h-254v223h254zM938 1753v-223h-256v223h256z" glyph-name="Edieresis" horiz-adv-x="1181" unicode="Ë"/><glyph d="M373 1434v-1434h-240v1434h240zM356 1530h-176l-334 301h320z" glyph-name="Igrave" horiz-adv-x="505" unicode="Ì"/><glyph d="M373 1434v-1434h-240v1434h240zM150 1530l190 301h319l-335 -301h-174z" glyph-name="Iacute" horiz-adv-x="505" unicode="Í"/><glyph d="M371 1434v-1434h-238v1434h238zM379 1831l239 -301h-176l-190 151l-191 -151h-176l240 301h254z" glyph-name="Icircumflex" horiz-adv-x="503" unicode="Î"/><glyph d="M373 1434v-1434h-240v1434h240zM188 1753v-223h-254v223h254zM571 1753v-223h-254v223h254z" glyph-name="Idieresis" horiz-adv-x="507" unicode="Ï"/><glyph d="M1073 1434h240v-1434h-240l-700 1106v-1106h-240v1434h254l686 -1082v1082zM905 1831h176q0 -6 1 -17.5t-1 -44t-8 -63.5t-21.5 -67.5t-38 -62.5t-63.5 -44.5t-92 -18.5q-43 0 -85 25t-68.5 54.5t-59.5 55t-57 25.5q-37 0 -48.5 -35.5t-4.5 -72.5l4 -35h-174 q-2 6 -2.5 17.5t2 44t7.5 63.5t20.5 67.5t39 63t63.5 44t93 17.5q43 0 84 -24.5t68.5 -54t59 -55t58.5 -25.5q35 0 47.5 35.5t5.5 72.5z" glyph-name="Ntilde" horiz-adv-x="1445" unicode="Ñ"/><glyph d="M740.5 1450q138.5 0 261 -53.5t213 -146.5t142.5 -232t52 -301t-52 -301.5t-142.5 -232.5t-213 -146t-261 -53t-260.5 53t-213 146t-143 232.5t-52 301.5t52 301t143 232t213 146.5t260.5 53.5zM740.5 190q187.5 0 309 147.5t121.5 379t-121.5 379t-309 147.5 t-308.5 -147.5t-121 -379t121 -379t308.5 -147.5zM877 1530h-177l-333 301h317z" glyph-name="Ograve" horiz-adv-x="1482" unicode="Ò"/><glyph d="M740.5 1450q138.5 0 261 -53.5t213 -146.5t142.5 -232t52 -301t-52 -301.5t-142.5 -232.5t-213 -146t-261 -53t-260.5 53t-213 146t-143 232.5t-52 301.5t52 301t143 232t213 146.5t260.5 53.5zM740.5 190q187.5 0 309 147.5t121.5 379t-121.5 379t-309 147.5 t-308.5 -147.5t-121 -379t121 -379t308.5 -147.5zM637 1530l190 301h320l-334 -301h-176z" glyph-name="Oacute" horiz-adv-x="1482" unicode="Ó"/><glyph d="M740.5 1450q138.5 0 261 -53.5t213 -146.5t142.5 -232t52 -301t-52 -301.5t-142.5 -232.5t-213 -146t-261 -53t-260.5 53t-213 146t-143 232.5t-52 301.5t52 301t143 232t213 146.5t260.5 53.5zM740.5 190q187.5 0 309 147.5t121.5 379t-121.5 379t-309 147.5 t-308.5 -147.5t-121 -379t121 -379t308.5 -147.5zM868 1831l240 -301h-176l-191 151l-192 -151h-174l237 301h256z" glyph-name="Ocircumflex" horiz-adv-x="1482" unicode="Ô"/><glyph d="M740.5 1450q138.5 0 261 -53.5t213 -146.5t142.5 -232t52 -301t-52 -301.5t-142.5 -232.5t-213 -146t-261 -53t-260.5 53t-213 146t-143 232.5t-52 301.5t52 301t143 232t213 146.5t260.5 53.5zM740.5 190q187.5 0 309 147.5t121.5 379t-121.5 379t-309 147.5 t-308.5 -147.5t-121 -379t121 -379t308.5 -147.5zM924 1831h176q0 -6 1 -17.5t-1 -44t-8.5 -63.5t-21.5 -67.5t-37.5 -62.5t-63.5 -44.5t-92 -18.5q-43 0 -85 25t-69 54.5t-59.5 55t-57.5 25.5q-37 0 -48 -35.5t-7 -72.5l6 -35h-174q-2 6 -2 17.5t1 44t7 63.5t21.5 67.5 t39 63t63.5 44t93 17.5q43 0 84 -24.5t68.5 -54t59.5 -55t59 -25.5q35 0 47 35.5t6 72.5z" glyph-name="Otilde" horiz-adv-x="1482" unicode="Õ"/><glyph d="M740.5 1450q138.5 0 261 -53.5t213 -146.5t142.5 -232t52 -301t-52 -301.5t-142.5 -232.5t-213 -146t-261 -53t-260.5 53t-213 146t-143 232.5t-52 301.5t52 301t143 232t213 146.5t260.5 53.5zM740.5 190q187.5 0 309 147.5t121.5 379t-121.5 379t-309 147.5 t-308.5 -147.5t-121 -379t121 -379t308.5 -147.5zM678 1753v-223h-256v223h256zM1059 1753v-223h-254v223h254z" glyph-name="Odieresis" horiz-adv-x="1482" unicode="Ö"/><glyph d="M874 395l-145 -145l-242 242l-241 -242l-148 145l242 242l-242 244l146 145l243 -242l242 242l145 -145l-241 -244z" glyph-name="multiply" horiz-adv-x="974" unicode="×"/><glyph d="M1475 1434l-193 -232q156 -199 156 -485q0 -281 -145.5 -473.5t-377.5 -243.5q-72 -16 -146.5 -16t-145.5 16q-135 29 -244 111l-92 -111h-224l193 231q-156 199 -156 486q0 281 145.5 473t377.5 244q72 16 146.5 16t145.5 -16q135 -29 244 -111l92 111h224zM338 717 q0 -170 70 -301l612 737q-109 90 -252 90q-186 0 -308 -147.5t-122 -378.5zM768 190q188 0 309 147.5t121 379.5q0 170 -70 301l-610 -737q109 -91 250 -91z" glyph-name="Oslash" horiz-adv-x="1533" unicode="Ø"/><glyph d="M1036 1434h240v-869q0 -248 -159 -414.5t-423 -166.5t-422.5 166.5t-158.5 414.5v869h239v-899q0 -152 87 -248.5t255 -96.5q160 0 251 97.5t91 247.5v899zM829 1530h-176l-334 301h320z" glyph-name="Ugrave" horiz-adv-x="1388" unicode="Ù"/><glyph d="M1036 1434h240v-869q0 -248 -159 -414.5t-423 -166.5t-422.5 166.5t-158.5 414.5v869h239v-899q0 -152 87 -248.5t255 -96.5q160 0 251 97.5t91 247.5v899zM590 1530l192 301h318l-334 -301h-176z" glyph-name="Uacute" horiz-adv-x="1388" unicode="Ú"/><glyph d="M1036 1434h240v-869q0 -248 -159 -414.5t-423 -166.5t-422.5 166.5t-158.5 414.5v869h239v-899q0 -152 87 -248.5t255 -96.5q160 0 251 97.5t91 247.5v899zM821 1831l240 -301h-176l-191 151l-190 -151h-176l239 301h254z" glyph-name="Ucircumflex" horiz-adv-x="1388" unicode="Û"/><glyph d="M1036 1434h240v-869q0 -248 -159 -414.5t-423 -166.5t-422.5 166.5t-158.5 414.5v869h239v-899q0 -152 87 -248.5t255 -96.5q160 0 251 97.5t91 247.5v899zM631 1753v-223h-256v223h256zM1012 1753v-223h-254v223h254z" glyph-name="Udieresis" horiz-adv-x="1388" unicode="Ü"/><glyph d="M1004 1434h253l-507 -820v-614h-240v614l-510 820h254l375 -613zM510 1530l190 301h320l-336 -301h-174z" glyph-name="Yacute" horiz-adv-x="1259" unicode="Ý"/><glyph d="M791 1040q0 94 -62.5 148.5t-144.5 54.5q-41 0 -74 -7t-56.5 -23.5t-40 -33t-26.5 -46t-15 -51t-8.5 -62.5t-3.5 -64.5v-70.5v-885h-239v852q0 154 20.5 259.5t72.5 184t142 116.5t228 38q188 0 316 -113.5t128 -312.5q0 -119 -84 -196.5t-190 -77.5h16q121 0 214 -84 t93 -220q0 -121 -38 -211t-103.5 -139t-140 -72.5t-160.5 -23.5h-180v207h143q240 0 240 223q0 111 -70 163t-170 52h-143v207h143q193 0 193 188z" glyph-name="germandbls" horiz-adv-x="1155" unicode="ß"/><glyph d="M508 1434l127 -287h-174l-223 287h270zM954 684v-684h-223v127q-33 -49 -83 -82t-103 -44t-80 -14t-53 -3q-63 2 -125 24q-72 25 -125 78t-72 123q-12 47 -12 94q0 102 65 182q45 57 109 88q66 29 135.5 47.5t185 39t142.5 24.5v33q0 160 -183.5 160t-183.5 -160h-237 q10 156 116.5 253t304.5 97q209 0 315.5 -106.5t106.5 -276.5zM715 350v160l-203 -45q-37 -8 -59.5 -14.5t-54 -20.5t-51 -35.5t-25.5 -52.5q-4 -18 -5 -39q-2 -57 39 -96t119 -31q55 4 106.5 20.5t92.5 57.5t41 96z" glyph-name="agrave" horiz-adv-x="1062" unicode="à"/><glyph d="M428 1147l127 287h272l-223 -287h-176zM954 684v-684h-223v127q-33 -49 -83 -82t-103 -44t-80 -14t-53 -3q-63 2 -125 24q-72 25 -125 78t-72 123q-12 47 -12 94q0 102 65 182q45 57 109 88q66 29 135.5 47.5t185 39t142.5 24.5v33q0 160 -183.5 160t-183.5 -160h-237 q10 156 116.5 253t304.5 97q209 0 315.5 -106.5t106.5 -276.5zM715 350v160l-203 -45q-37 -8 -59.5 -14.5t-54 -20.5t-51 -35.5t-25.5 -52.5q-4 -18 -5 -39q-2 -57 39 -96t119 -31q55 4 106.5 20.5t92.5 57.5t41 96z" glyph-name="aacute" horiz-adv-x="1062" unicode="á"/><glyph d="M643 1434l191 -287h-175l-127 127l-129 -127h-174l191 287h223zM954 684v-684h-223v127q-33 -49 -83 -82t-103 -44t-80 -14t-53 -3q-63 2 -125 24q-72 25 -125 78t-72 123q-12 47 -12 94q0 102 65 182q45 57 109 88q66 29 135.5 47.5t185 39t142.5 24.5v33 q0 160 -183.5 160t-183.5 -160h-237q10 156 116.5 253t304.5 97q209 0 315.5 -106.5t106.5 -276.5zM715 350v160l-203 -45q-37 -8 -59.5 -14.5t-54 -20.5t-51 -35.5t-25.5 -52.5q-4 -18 -5 -39q-2 -57 39 -96t119 -31q55 4 106.5 20.5t92.5 57.5t41 96z" glyph-name="acircumflex" horiz-adv-x="1062" unicode="â"/><glyph d="M684 1434h174q2 -6 3 -17.5t1 -42.5t-4 -59.5t-18.5 -63t-36 -60.5t-61.5 -43.5t-91 -17.5q-43 0 -79.5 26t-57 55.5t-48.5 54t-54 24.5q-35 0 -43.5 -35.5t2.5 -70.5l10 -37h-176q0 6 -1 17.5t-1 42t4 59t17.5 63.5t35 60.5t61 43t91.5 17.5q43 0 79.5 -25.5t58 -55.5 t48.5 -54.5t53 -24.5q35 0 43 36t-2 71zM954 684v-684h-223v127q-33 -49 -83 -82t-103 -44t-80 -14t-53 -3q-63 2 -125 24q-72 25 -125 78t-72 123q-12 47 -12 94q0 102 65 182q45 57 109 88q66 29 135.5 47.5t185 39t142.5 24.5v33q0 160 -183.5 160t-183.5 -160h-237 q10 156 116.5 253t304.5 97q209 0 315.5 -106.5t106.5 -276.5zM715 350v160l-203 -45q-37 -8 -59.5 -14.5t-54 -20.5t-51 -35.5t-25.5 -52.5q-4 -18 -5 -39q-2 -57 39 -96t119 -31q55 4 106.5 20.5t92.5 57.5t41 96z" glyph-name="atilde" horiz-adv-x="1062" unicode="ã"/><glyph d="M469 1434v-224h-256v224h256zM850 1434v-224h-254v224h254zM954 684v-684h-223v127q-33 -49 -83 -82t-103 -44t-80 -14t-53 -3q-63 2 -125 24q-72 25 -125 78t-72 123q-12 47 -12 94q0 102 65 182q45 57 109 88q66 29 135.5 47.5t185 39t142.5 24.5v33q0 160 -183.5 160 t-183.5 -160h-237q10 156 116.5 253t304.5 97q209 0 315.5 -106.5t106.5 -276.5zM715 350v160l-203 -45q-37 -8 -59.5 -14.5t-54 -20.5t-51 -35.5t-25.5 -52.5q-4 -18 -5 -39q-2 -57 39 -96t119 -31q55 4 106.5 20.5t92.5 57.5t41 96z" glyph-name="adieresis" horiz-adv-x="1062" unicode="ä"/><glyph d="M531.5 1530q82.5 0 141 -58.5t58.5 -141.5t-58.5 -141.5t-141 -58.5t-141 58.5t-58.5 141.5t58.5 141.5t141 58.5zM532 1227q43 0 73 29.5t30 72.5t-30 74t-73 31t-73.5 -31t-30.5 -74t30.5 -72.5t73.5 -29.5zM954 684v-684h-223v127q-33 -49 -83 -82t-103 -44t-80 -14 t-53 -3q-63 2 -125 24q-72 25 -125 78t-72 123q-12 47 -12 94q0 102 65 182q45 57 109 88q66 29 135.5 47.5t185 39t142.5 24.5v33q0 160 -183.5 160t-183.5 -160h-237q10 156 116.5 253t304.5 97q209 0 315.5 -106.5t106.5 -276.5zM715 350v160l-203 -45 q-37 -8 -59.5 -14.5t-54 -20.5t-51 -35.5t-25.5 -52.5q-4 -18 -5 -39q-2 -57 39 -96t119 -31q55 4 106.5 20.5t92.5 57.5t41 96z" glyph-name="aring" horiz-adv-x="1062" unicode="å"/><glyph d="M1655 526v-32h-715q8 -139 75.5 -228.5t178.5 -89.5q127 0 184 127h244q-49 -150 -161.5 -234.5t-266.5 -84.5q-117 0 -220.5 52t-170.5 146q-68 -94 -171.5 -146t-219.5 -52q-63 2 -125 24q-72 25 -125 78t-72 123q-12 47 -12 94q0 102 65 182q45 57 109 88 q66 29 135.5 47.5t185 39t142.5 24.5v33q0 160 -183.5 160t-183.5 -160h-237q10 156 116.5 253t304.5 97q223 0 334 -125q139 127 328 125q180 0 303 -115.5t152 -314.5q6 -56 6 -111zM715 350v160l-15 -4l-188 -41q-37 -8 -59.5 -14.5t-54 -20.5t-51 -35.5t-25.5 -52.5 q-4 -18 -5 -39q-2 -57 39 -96t119 -31q55 4 106.5 20.5t92.5 57.5t41 96zM950 637h459q-16 117 -70.5 186.5t-144.5 69.5q-94 0 -157.5 -70.5t-86.5 -185.5z" glyph-name="ae" horiz-adv-x="1728" unicode="æ"/><glyph d="M567 176q82 0 137.5 50t81.5 141h242q-35 -152 -132 -250.5t-234 -122.5l-125 -281h-271l215 279q-178 31 -292.5 175t-114.5 359q0 240 142 390.5t351 150.5q172 0 296 -102.5t165 -280.5h-242q-27 90 -82 141.5t-137 51.5q-117 0 -185.5 -99.5t-68.5 -251t68.5 -251 t185.5 -99.5z" glyph-name="ccedilla" horiz-adv-x="1095" unicode="ç"/><glyph d="M1030 494h-717q8 -139 77 -228.5t177 -89.5q129 0 185 127h245q-51 -150 -163.5 -234.5t-266.5 -84.5q-201 0 -342 141t-151 369v32q0 55 8 111q33 197 168 313.5t317 116.5t304 -115.5t151 -314.5q8 -53 8 -111v-32zM324 637h460q-18 117 -71.5 186.5t-145.5 69.5 t-156 -71.5t-87 -184.5zM537 1434l127 -287h-175l-223 287h271z" glyph-name="egrave" horiz-adv-x="1101" unicode="è"/><glyph d="M1030 494h-717q8 -139 77 -228.5t177 -89.5q129 0 185 127h245q-51 -150 -163.5 -234.5t-266.5 -84.5q-201 0 -342 141t-151 369v32q0 55 8 111q33 197 168 313.5t317 116.5t304 -115.5t151 -314.5q8 -53 8 -111v-32zM324 637h460q-18 117 -71.5 186.5t-145.5 69.5 t-156 -71.5t-87 -184.5zM457 1147l127 287h270l-221 -287h-176z" glyph-name="eacute" horiz-adv-x="1101" unicode="é"/><glyph d="M1030 494h-717q8 -139 77 -228.5t177 -89.5q129 0 185 127h245q-51 -150 -163.5 -234.5t-266.5 -84.5q-201 0 -342 141t-151 369v32q0 55 8 111q33 197 168 313.5t317 116.5t304 -115.5t151 -314.5q8 -53 8 -111v-32zM324 637h460q-18 117 -71.5 186.5t-145.5 69.5 t-156 -71.5t-87 -184.5zM664 1434l190 -287h-174l-127 127l-129 -127h-174l190 287h224z" glyph-name="ecircumflex" horiz-adv-x="1101" unicode="ê"/><glyph d="M1030 494h-717q8 -139 77 -228.5t177 -89.5q129 0 185 127h245q-51 -150 -163.5 -234.5t-266.5 -84.5q-201 0 -342 141t-151 369v32q0 55 8 111q33 197 168 313.5t317 116.5t304 -115.5t151 -314.5q8 -53 8 -111v-32zM324 637h460q-18 117 -71.5 186.5t-145.5 69.5 t-156 -71.5t-87 -184.5zM489 1434v-224h-256v224h256zM870 1434v-224h-254v224h254z" glyph-name="edieresis" horiz-adv-x="1101" unicode="ë"/><glyph d="M360 1051v-1051h-239v1051h239zM201 1434l127 -287h-174l-224 287h271z" glyph-name="igrave" horiz-adv-x="481" unicode="ì"/><glyph d="M360 1051v-1051h-239v1051h239zM137 1147l127 287h271l-224 -287h-174z" glyph-name="iacute" horiz-adv-x="481" unicode="í"/><glyph d="M360 1051v-1051h-239v1051h239zM352 1434l193 -287h-176l-127 127l-127 -127h-176l190 287h223z" glyph-name="icircumflex" horiz-adv-x="483" unicode="î"/><glyph d="M360 1051v-1051h-239v1051h239zM176 1434v-224h-254v224h254zM559 1434v-224h-254v224h254z" glyph-name="idieresis" horiz-adv-x="483" unicode="ï"/><glyph d="M121 0v1051h223v-131q111 147 287 147q158 0 270.5 -111.5t112.5 -271.5v-684h-240v649q0 102 -49 165t-145 63q-100 0 -160 -63.5t-60 -164.5v-649h-239zM688 1434h176q2 -6 3 -17.5t1 -42.5t-4 -59.5t-18.5 -63t-36 -60.5t-61 -43.5t-91.5 -17.5q-43 0 -79.5 26 t-58 55.5t-48.5 54t-53 24.5q-35 0 -43 -35.5t2 -70.5l10 -37h-176q0 6 -1 17.5t-1 42t4 59t17.5 63.5t35 60.5t61.5 43t91 17.5q43 0 80 -25.5t58.5 -55.5t48 -54.5t52.5 -24.5q35 0 43.5 36t-2.5 71z" glyph-name="ntilde" horiz-adv-x="1122" unicode="ñ"/><glyph d="M1063 525.5q0 -240.5 -142.5 -391t-352.5 -150.5t-352 150.5t-142 391t142 391t352 150.5t352.5 -150.5t142.5 -391zM823 526.5q0 151.5 -69.5 251t-186 99.5t-185.5 -99.5t-69 -251t69 -251t185.5 -99.5t186 99.5t69.5 251zM537 1434l127 -287h-175l-223 287h271z" glyph-name="ograve" horiz-adv-x="1136" unicode="ò"/><glyph d="M1063 525.5q0 -240.5 -142.5 -391t-352.5 -150.5t-352 150.5t-142 391t142 391t352 150.5t352.5 -150.5t142.5 -391zM823 526.5q0 151.5 -69.5 251t-186 99.5t-185.5 -99.5t-69 -251t69 -251t185.5 -99.5t186 99.5t69.5 251zM440 1147l127 287h273l-224 -287h-176z" glyph-name="oacute" horiz-adv-x="1136" unicode="ó"/><glyph d="M1063 525.5q0 -240.5 -142.5 -391t-352.5 -150.5t-352 150.5t-142 391t142 391t352 150.5t352.5 -150.5t142.5 -391zM823 526.5q0 151.5 -69.5 251t-186 99.5t-185.5 -99.5t-69 -251t69 -251t185.5 -99.5t186 99.5t69.5 251zM680 1434l190 -287h-174l-129 127l-127 -127 h-174l191 287h223z" glyph-name="ocircumflex" horiz-adv-x="1136" unicode="ô"/><glyph d="M1063 525.5q0 -240.5 -142.5 -391t-352.5 -150.5t-352 150.5t-142 391t142 391t352 150.5t352.5 -150.5t142.5 -391zM823 526.5q0 151.5 -69.5 251t-186 99.5t-185.5 -99.5t-69 -251t69 -251t185.5 -99.5t186 99.5t69.5 251zM719 1434h176q0 -6 2 -17.5t1 -42.5t-5 -59.5 t-17.5 -63t-35 -60.5t-61.5 -43.5t-91 -17.5q-43 0 -80 26t-58.5 55.5t-48 54t-52.5 24.5q-35 0 -43.5 -35.5t2.5 -70.5l10 -37h-176q0 6 -2 17.5t-2 42t5 59t18 63.5t34.5 60.5t61.5 43t92 17.5q43 0 79.5 -25.5t58 -55.5t48.5 -54.5t53 -24.5q35 0 43 36t-2 71z" glyph-name="otilde" horiz-adv-x="1136" unicode="õ"/><glyph d="M1063 525.5q0 -240.5 -142.5 -391t-352.5 -150.5t-352 150.5t-142 391t142 391t352 150.5t352.5 -150.5t142.5 -391zM823 526.5q0 151.5 -69.5 251t-186 99.5t-185.5 -99.5t-69 -251t69 -251t185.5 -99.5t186 99.5t69.5 251zM504 1434v-224h-254v224h254zM887 1434v-224 h-254v224h254z" glyph-name="odieresis" horiz-adv-x="1136" unicode="ö"/><glyph d="M1149 1051l-154 -185q102 -143 103 -340q0 -242 -143.5 -392t-352.5 -150q-150 0 -270 82l-53 -66h-224l154 184q-100 143 -100 342q0 240 142 390.5t351 150.5q150 0 270 -80l54 64h223zM348 526q0 -80 21 -149l372 450q-61 49 -139 50q-117 0 -185.5 -99.5 t-68.5 -251.5zM858 526q0 78 -22 148l-371 -451q59 -47 137 -47q117 0 186.5 99t69.5 251z" glyph-name="oslash" horiz-adv-x="1204" unicode="ø"/><glyph d="M743 1051h240v-1051h-223v127q-109 -143 -279 -143q-156 0 -265.5 112.5t-109.5 270.5v684h240v-650q0 -102 47 -163.5t139 -61.5q96 0 153.5 63.5t57.5 161.5v650zM520 1434l127 -287h-174l-223 287h270z" glyph-name="ugrave" horiz-adv-x="1103" unicode="ù"/><glyph d="M743 1051h240v-1051h-223v127q-109 -143 -279 -143q-156 0 -265.5 112.5t-109.5 270.5v684h240v-650q0 -102 47 -163.5t139 -61.5q96 0 153.5 63.5t57.5 161.5v650zM440 1147l129 287h271l-224 -287h-176z" glyph-name="uacute" horiz-adv-x="1103" unicode="ú"/><glyph d="M743 1051h240v-1051h-223v127q-109 -143 -279 -143q-156 0 -265.5 112.5t-109.5 270.5v684h240v-650q0 -102 47 -163.5t139 -61.5q96 0 153.5 63.5t57.5 161.5v650zM655 1434l193 -287h-176l-127 127l-127 -127h-176l190 287h223z" glyph-name="ucircumflex" horiz-adv-x="1103" unicode="û"/><glyph d="M743 1051h240v-1051h-223v127q-109 -143 -279 -143q-156 0 -265.5 112.5t-109.5 270.5v684h240v-650q0 -102 47 -163.5t139 -61.5q96 0 153.5 63.5t57.5 161.5v650zM481 1434v-224h-256v224h256zM862 1434v-224h-254v224h254z" glyph-name="udieresis" horiz-adv-x="1103" unicode="ü"/><glyph d="M440 0l-413 1051h239l279 -799l278 799h240l-416 -1051q-33 -78 -57.5 -127t-62.5 -102.5t-78.5 -83t-99 -50t-132.5 -20.5h-94v193h133q74 0 121 53t63 137zM440 1147l127 287h273l-224 -287h-176z" glyph-name="yacute" horiz-adv-x="1089" unicode="ý"/><glyph d="M440 0l-413 1051h239l279 -799l278 799h240l-416 -1051q-33 -78 -57.5 -127t-62.5 -102.5t-78.5 -83t-99 -50t-132.5 -20.5h-94v193h133q74 0 121 53t63 137zM481 1434v-224h-256v224h256zM862 1434v-224h-254v224h254z" glyph-name="ydieresis" horiz-adv-x="1089" unicode="ÿ"/><glyph d="M360 1051v-1051h-239v1051h239z" glyph-name="dotlessi" horiz-adv-x="481" unicode="ı"/><glyph d="M2142 1227h-733v-375h637v-207h-637v-438h733v-207h-971v143q-182 -160 -430 -159q-139 0 -261 53t-213 146t-143 232.5t-52 301.5t52 301t143 232t213 146.5t261 53.5q248 0 430 -160v144h971v-207zM740.5 190q187.5 0 309 147.5t121.5 379t-121.5 379t-309 147.5 t-308.5 -147.5t-121 -379t121 -379t308.5 -147.5z" glyph-name="OE" horiz-adv-x="2220" unicode="Œ"/><glyph d="M1761 494h-714q2 -35 8 -68q23 -115 87 -182.5t158 -67.5q129 0 185 127h244q-49 -150 -162 -234.5t-267 -84.5q-223 0 -366 166q-141 -166 -367 -166q-209 0 -351 150.5t-142 391t142 391t351 150.5q225 0 367 -166q143 166 366 166q180 0 303 -115.5t152 -314.5 q8 -53 8 -111q0 -16 -2 -32zM813 424q10 49 10 101.5t-10 101.5q-20 113 -84.5 181.5t-161.5 68.5q-117 0 -185.5 -99.5t-68.5 -251t69 -251t185 -99.5q96 0 161 67.5t85 180.5zM1300 893q-92 0 -156.5 -71.5t-86.5 -184.5h459q-16 117 -70 186.5t-146 69.5z" glyph-name="oe" horiz-adv-x="1835" unicode="œ"/><glyph d="M975 1831l-238 -301h-256l-239 301h176l190 -150l193 150h174zM346 1051q0 -57 44 -101.5t113.5 -73t154.5 -55t170 -59.5t156 -76t115 -112.5t44 -159.5q0 -211 -134.5 -320.5t-375.5 -109.5q-266 0 -411.5 118.5t-145.5 343.5h239q-2 -125 88.5 -190.5t229.5 -65.5 q119 0 194.5 54.5t75.5 138.5q0 53 -33.5 92t-90 60.5t-128 44t-146.5 41t-146.5 53.5t-127 80t-90.5 121.5t-35 175.5q0 180 134.5 289.5t359.5 109.5t367.5 -111.5t142.5 -318.5h-240q0 102 -80.5 162.5t-189.5 60.5q-113 0 -183.5 -50t-70.5 -142z" glyph-name="Scaron" horiz-adv-x="1220" unicode="Š"/><glyph d="M784 1434l-190 -287h-223l-191 287h174l129 -127l127 127h174zM489 877q-68 0 -113.5 -31t-45.5 -82q0 -43 43 -72.5t106.5 -43t138 -37t138 -54.5t105.5 -96.5t42 -157.5q0 -141 -118.5 -230t-295.5 -89q-172 0 -292.5 98t-120.5 237h239q0 -59 51.5 -101t122.5 -42 q76 0 126.5 35t50.5 92q0 47 -43 78t-106.5 44t-138.5 36.5t-138.5 52.5t-105.5 93.5t-42 156.5q0 131 116 217t281 86q166 0 283 -93t117 -224h-240q0 51 -47 89t-113 38z" glyph-name="scaron" horiz-adv-x="985" unicode="š"/><glyph d="M743 1051h240v-1051h-223v127q-109 -143 -279 -143q-156 0 -265.5 112.5t-109.5 270.5v684h240v-650q0 -102 47 -163.5t139 -61.5q96 0 153.5 63.5t57.5 161.5v650zM887 1210h-684v207h684v-207z" glyph-name="umacron" horiz-adv-x="1103" unicode="ū"/><glyph d="M743 1051h240v-1051h-223v127q-109 -143 -279 -143q-156 0 -265.5 112.5t-109.5 270.5v684h240v-650q0 -102 47 -163.5t139 -61.5q96 0 153.5 63.5t57.5 161.5v650zM672 1544h190q0 -156 -91 -253t-226 -97t-227.5 97.5t-92.5 252.5h193q0 -76 34.5 -125t92 -49t92.5 49 t35 125z" glyph-name="ubreve" horiz-adv-x="1103" unicode="ŭ"/><glyph d="M1004 1434h253l-507 -820v-614h-240v614l-510 820h254l375 -613zM565 1753v-223h-254v223h254zM948 1753v-223h-256v223h256z" glyph-name="Ydieresis" horiz-adv-x="1259" unicode="Ÿ"/><glyph d="M1169 1343l-809 -1136h809v-207h-1130v90l809 1137h-762v207h1083v-91zM995 1831l-239 -301h-254l-240 301h174l193 -150l190 150h176z" glyph-name="Zcaron" horiz-adv-x="1218" unicode="Ž"/><glyph d="M950 969l-602 -779h586v-190h-877v123l570 737h-537v191h860v-82zM821 1434l-190 -287h-223l-191 287h174l129 -127l127 127h174z" glyph-name="zcaron" horiz-adv-x="1005" unicode="ž"/><glyph d="M627 1831l239 -301h-176l-190 151l-191 -151h-176l240 301h254z" glyph-name="circumflex" horiz-adv-x="999" unicode="ˆ"/><glyph d="M866 1831l-239 -301h-254l-240 301h176l191 -150l190 150h176z" glyph-name="caron" horiz-adv-x="999" unicode="ˇ"/><glyph d="M223 1847q96 0 161 -68.5t65 -178t-65 -178t-161 -68.5t-160.5 68.5t-64.5 178t64.5 178t160.5 68.5zM223 1466q49 0 80 38t31 97.5t-31 97.5t-80 38t-79.5 -38t-30.5 -97.5t30.5 -97.5t79.5 -38z" glyph-name="ring" horiz-adv-x="448" unicode="˚"/><glyph d="M676 1831h176q0 -6 1 -17.5t-1 -44t-8 -63.5t-21.5 -67.5t-38 -62.5t-63.5 -44.5t-92 -18.5q-43 0 -85 25t-68.5 54.5t-59.5 55t-58 25.5q-37 0 -48 -35.5t-7 -72.5l6 -35h-174q-2 6 -2 17.5t1 44t7 63.5t21.5 67.5t39 63t63.5 44t93 17.5q41 0 83 -24.5t70 -54t59.5 -55 t58.5 -25.5q35 0 47 35.5t6 72.5z" glyph-name="tilde" horiz-adv-x="987" unicode="˜"/><glyph d="M975 535h-893v206h893v-206z" glyph-name="endash" horiz-adv-x="1056" unicode="–"/><glyph d="M1595 535h-1513v206h1513v-206z" glyph-name="emdash" horiz-adv-x="1677" unicode="—"/><glyph d="M352 893h-254v254l144 287h127l-95 -287h78v-254z" glyph-name="quoteleft" horiz-adv-x="466" unicode="‘"/><glyph d="M115 1180v254h254v-254l-144 -287h-127l97 287h-80z" glyph-name="quoteright" horiz-adv-x="468" unicode="’"/><glyph d="M86 254h254v-254l-143 -287h-136l105 287h-80v254z" glyph-name="quotesinglbase" horiz-adv-x="428" unicode="‚"/><glyph d="M688 1147v-254h-256v254l143 287h130l-97 -287h80zM352 893h-254v254l144 287h127l-95 -287h78v-254z" glyph-name="quotedblleft" horiz-adv-x="800" unicode="“"/><glyph d="M115 1180v254h254v-254l-144 -287h-127l97 287h-80zM449 1434h256v-254l-144 -287h-129l96 287h-79v254z" glyph-name="quotedblright" horiz-adv-x="802" unicode="”"/><glyph d="M86 0v254h254v-254l-143 -287h-127l96 287h-80zM420 254h256v-254l-144 -287h-129l97 287h-80v254z" glyph-name="quotedblbase" horiz-adv-x="761" unicode="„"/><glyph d="M1253 1051v-207h-462v-1227h-238v1227h-463v207h463v383h238v-383h462z" glyph-name="dagger" horiz-adv-x="1343" unicode="†"/><glyph d="M1274 844h-463v-637h463v-207h-463v-383h-238v383h-462v207h462v637h-462v207h462v383h238v-383h463v-207z" glyph-name="daggerdbl" horiz-adv-x="1384" unicode="‡"/><glyph d="M410 877v-320h-320v320h320z" glyph-name="bullet" horiz-adv-x="499" unicode="•"/><glyph d="M1106 254v-254h-256v254h256zM723 254v-254h-254v254h254zM340 254v-254h-254v254h254z" glyph-name="ellipsis" horiz-adv-x="1191" unicode="…"/><glyph d="M96 821l1051 365v-238l-762 -231l762 -232v-237l-1051 364v209z" glyph-name="guilsinglleft" horiz-adv-x="1259" unicode="‹"/><glyph d="M111 1186l1050 -365v-209l-1050 -364v237l761 232l-761 231v238z" glyph-name="guilsinglright" horiz-adv-x="1259" unicode="›"/><glyph d="M381 1817q141 0 216 -102.5t75 -281t-75 -280.5t-216 -102t-216 102t-75 280.5t75 281t216 102.5zM381 1159q82 0 124 74t42 201t-42 200.5t-124 73.5t-124 -73.5t-42 -200.5t42 -201t124 -74z" glyph-name="uni2070" horiz-adv-x="763" unicode="⁰"/><glyph d="M672 1352v-105h-137v-180h-123v180h-326v105l285 448h164v-448h137zM217 1352h195v307z" glyph-name="uni2074" horiz-adv-x="759" unicode="⁴"/><glyph d="M350 1552q121 0 197 -71.5t76 -178t-76 -179t-197 -72.5q-203 0 -264 206h133q14 -45 51 -71.5t84 -26.5q61 0 103.5 42t42.5 101.5t-42 101.5t-104 42q-63 0 -106 -47q0 -2 -2 -2q0 -2 -2 -4l-117 20l35 387h420v-106h-308l-14 -162q43 20 90 20z" glyph-name="uni2075" horiz-adv-x="712" unicode="⁵"/><glyph d="M381 1559q123 0 198.5 -73t75.5 -180.5t-75.5 -181t-198.5 -73.5q-141 0 -216 102t-75 280.5t75 281t216 102.5q190 0 260 -185h-135q-43 76 -125 76q-74 0 -117 -63.5t-49 -174.5q60 89 166 89zM385 1159q59 0 102 43t43 103.5t-43 102.5t-102 42t-102 -42t-43 -102.5 t43 -103.5t102 -43z" glyph-name="uni2076" horiz-adv-x="745" unicode="⁶"/><glyph d="M-14 1800h465v-106q-109 -100 -173.5 -268.5t-64.5 -358.5h-121q0 195 60.5 360.5t162.5 266.5h-329v106z" glyph-name="uni2077" horiz-adv-x="366" unicode="⁷"/><glyph d="M502 1456q63 -27 100 -76t37 -112q0 -96 -79 -156.5t-195.5 -60.5t-195.5 60t-79 157q0 63 37 112.5t100 75.5q-104 55 -104 164q0 88 69.5 142.5t172 54.5t172 -54.5t69.5 -142.5q0 -109 -104 -164zM364.5 1708q-49.5 0 -83 -28.5t-33.5 -74.5t33.5 -76t83 -30t83 30 t33.5 76t-33.5 74.5t-83 28.5zM364.5 1159q65.5 0 107.5 33t42 84t-42 84t-107.5 33t-107.5 -33t-42 -84t42 -84t107.5 -33z" glyph-name="uni2078" horiz-adv-x="729" unicode="⁸"/><glyph d="M346 1309q-123 0 -198.5 72.5t-75.5 180t75.5 181.5t198.5 74q141 0 216 -102.5t75 -281t-75 -280.5t-216 -102q-190 0 -260 184h135q43 -76 125 -76q74 0 117 63.5t49 174.5q-60 -88 -166 -88zM341 1708q-60 0 -102 -43t-42 -103.5t42 -102.5t102 -42t103 42t43 102.5 t-43 103.5t-103 43z" glyph-name="uni2079" horiz-adv-x="727" unicode="⁹"/><glyph d="M381 383q141 0 216 -102.5t75 -280.5t-75 -280.5t-216 -102.5t-216 102.5t-75 280.5t75 280.5t216 102.5zM381 -274q82 0 124 73.5t42 200.5t-42 200.5t-124 73.5t-124 -73.5t-42 -200.5t42 -200.5t124 -73.5z" glyph-name="uni2080" horiz-adv-x="763" unicode="₀"/><glyph d="M209 367h121v-734h-121v564q-12 -2 -25 -2h-98v98h66q35 0 46 18.5t11 55.5z" glyph-name="uni2081" horiz-adv-x="425" unicode="₁"/><glyph d="M80 -260l201 162q10 8 32.5 24.5t33.5 26.5t28.5 25.5t31 32t23.5 32.5q55 96 10 172q-35 59 -104 59q-51 0 -88 -35.5t-37 -86.5v-25h-123v25q0 96 72.5 163.5t175.5 67.5q59 0 113.5 -26.5t89.5 -75.5q63 -84 34 -199q-10 -45 -33.5 -86t-60.5 -78t-65.5 -60.5 t-79.5 -61.5t-74 -56h338v-107h-518v107z" glyph-name="uni2082" horiz-adv-x="673" unicode="₂"/><glyph d="M451 23q61 -29 97 -77t36 -112q0 -96 -80 -156.5t-195 -60.5q-113 0 -183.5 57.5t-74.5 151.5h125q6 -47 40 -73.5t93 -26.5q66 0 108 32.5t42 84t-42 84t-108 32.5h-76v107h76q49 0 82 29.5t33 75.5t-33 74.5t-82 28.5q-82 0 -98 -75h-127q6 84 66.5 134t158.5 50 q102 0 171 -54.5t69 -142.5q0 -104 -98 -159v-4z" glyph-name="uni2083" horiz-adv-x="641" unicode="₃"/><glyph d="M612 -82v-104h-137v-181h-123v181h-325v104l284 449h164v-449h137zM158 -82h194v307z" glyph-name="uni2084" horiz-adv-x="571" unicode="₄"/><glyph d="M313 119q121 0 197 -72t76 -178.5t-76 -179t-197 -72.5q-203 0 -264 207h133q14 -45 51 -71.5t84 -26.5q61 0 103.5 42t42.5 101t-42 101t-104 42q-63 0 -106 -47q0 -2 -2 -2q0 -2 -2 -4l-117 21l35 387h420v-107h-307l-15 -162q43 21 90 21z" glyph-name="uni2085" horiz-adv-x="636" unicode="₅"/><glyph d="M381 125q123 0 198.5 -72.5t75.5 -180.5t-75.5 -181.5t-198.5 -73.5q-141 0 -216 102.5t-75 280.5t75 280.5t216 102.5q190 0 260 -184h-135q-43 76 -125 75q-74 0 -117 -63.5t-49 -173.5q60 88 166 88zM385 -274q59 0 102 43t43 103t-43 102t-102 42t-102 -42t-43 -102 t43 -103t102 -43z" glyph-name="uni2086" horiz-adv-x="727" unicode="₆"/><glyph d="M82 367h465v-107q-109 -100 -173.5 -268t-64.5 -359h-121q0 195 60.5 361t163.5 266h-330v107z" glyph-name="uni2087" horiz-adv-x="632" unicode="₇"/><glyph d="M469 23q63 -27 100 -76t37 -113q0 -96 -78.5 -156.5t-195.5 -60.5t-196 60.5t-79 156.5q0 63 37 112.5t101 76.5q-104 55 -105 163q0 88 69.5 142.5t172 54.5t172 -54.5t69.5 -142.5q0 -108 -104 -163zM332 274q-49 0 -83 -28.5t-34 -74.5t34 -75.5t83 -29.5t83 29.5 t34 75.5t-34 74.5t-83 28.5zM331.5 -274q65.5 0 107.5 32.5t42 84t-42 84t-107.5 32.5t-107.5 -32.5t-42 -84t42 -84t107.5 -32.5z" glyph-name="uni2088" horiz-adv-x="663" unicode="₈"/><glyph d="M367 -125q-123 0 -199 72.5t-76 180.5t76 181.5t199 73.5q141 0 215.5 -102.5t74.5 -280.5t-74.5 -280.5t-215.5 -102.5q-190 0 -261 184h136q43 -76 125 -75q74 0 116.5 63.5t48.5 173.5q-59 -88 -165 -88zM361.5 274q-60.5 0 -102.5 -43t-42 -103t42 -102t102.5 -42 t103.5 42t43 102t-43 103t-103.5 43z" glyph-name="uni2089" horiz-adv-x="747" unicode="₉"/><glyph d="M834 190q252 0 323 287h242q-51 -231 -197.5 -362t-367.5 -131q-244 0 -414 155.5t-211 417.5h-109l17 113h80v47v47h-97l17 113h92q41 262 211 417.5t414 155.5q221 0 367.5 -131t197.5 -363h-242q-72 287 -323 287q-152 0 -251.5 -98t-133.5 -268h559l-15 -113h-557 q-2 -25 -2 -47.5t2 -46.5h492l-15 -113h-464q35 -170 134 -268.5t251 -98.5z" glyph-name="Euro" horiz-adv-x="1509" unicode="€"/><glyph d="M625 1434v-97h-215v-573h-113v573h-215v97h543zM1184 1434h135v-670h-113v475l-164 -475h-96l-164 475v-475h-110v670h133l190 -533z" glyph-name="trademark" horiz-adv-x="1429" unicode="™"/><glyph d="M555 1190l158 -158l-197 -196h1000v-238h-1000l197 -197l-158 -157l-473 473z" glyph-name="arrowleft" horiz-adv-x="1611" unicode="←"/><glyph d="M1022 961l-158 -158l-196 196v-999h-238v999l-197 -196l-157 158l473 473z" glyph-name="arrowup" horiz-adv-x="1097" unicode="↑"/><glyph d="M1057 244l-158 157l197 197h-1000v238h1000l-197 196l158 158l473 -473z" glyph-name="arrowright" horiz-adv-x="1611" unicode="→"/><glyph d="M866 631l158 -158l-473 -473l-473 473l158 158l196 -197v1000h238v-1000z" glyph-name="arrowdown" horiz-adv-x="1101" unicode="↓"/><glyph d="M336 555h-223v668h669v-222h-278l706 -706l-168 -170l-706 706v-276z" glyph-name="uni2196" horiz-adv-x="1290" unicode="↖"/><glyph d="M1176 555h-224v276l-706 -706l-168 170l706 706h-276v222h668v-668z" glyph-name="uni2197" horiz-adv-x="1290" unicode="↗"/><glyph d="M952 879h224v-668h-668v221h276l-706 707l168 170l706 -707v277z" glyph-name="uni2198" horiz-adv-x="1290" unicode="↘"/><glyph d="M113 879h223v-277l706 707l168 -170l-706 -707h278v-221h-669v668z" glyph-name="uni2199" horiz-adv-x="1290" unicode="↙"/></font>
</defs>
</svg>
